<!DOCTYPE svg PUBLIC "-//W3C//DTD SVG 20010904//EN" "http://www.w3.org/TR/2001/REC-SVG-20010904/DTD/svg10.dtd">
<svg version="1.0" xmlns="http://www.w3.org/2000/svg" width="656px" height="558px" viewBox="0 0 6560 5580" preserveAspectRatio="xMidYMid meet">
<g id="layer1" fill="#000000" stroke="none">
 <path d="M2175 5490 c-170 -7 -480 -36 -505 -46 -8 -4 -55 -15 -105 -24 -128 -26 -317 -79 -390 -110 -187 -79 -236 -107 -380 -215 -34 -25 -175 -171 -211 -217 -106 -137 -213 -370 -264 -575 -12 -44 -11 -61 4 -126 19 -81 32 -104 89 -167 58 -61 108 -89 184 -100 43 -6 789 -10 1986 -10 l1917 0 0 349 0 349 -37 69 c-176 329 -426 546 -761 659 -181 62 -391 108 -582 130 -69 7 -156 18 -195 23 -93 13 -550 20 -750 11z"/>
 <path d="M4750 4251 l0 -351 293 0 c160 0 321 5 357 11 135 22 237 121 270 263 15 66 15 77 0 148 -20 93 -69 164 -156 225 -60 42 -95 46 -436 50 l-328 5 0 -351z"/>
 <path d="M832 3439 c-197 -252 -311 -459 -406 -739 -57 -170 -65 -203 -107 -505 -28 -200 33 -565 145 -858 26 -69 89 -210 105 -237 5 -8 24 -42 41 -75 48 -90 174 -276 208 -308 50 -48 151 -57 208 -20 12 8 41 44 65 81 54 84 171 244 218 297 83 93 342 347 416 407 137 111 322 225 349 215 8 -3 31 -36 52 -74 184 -332 455 -648 776 -904 148 -118 132 -107 218 -163 106 -70 135 -88 220 -135 41 -23 82 -46 90 -51 53 -31 338 -160 356 -160 5 -1 27 -9 49 -20 22 -11 47 -20 55 -20 8 0 28 -7 44 -15 64 -34 161 -4 203 62 9 16 42 62 73 103 132 179 319 507 360 635 7 22 16 45 20 50 24 32 117 338 146 480 8 39 19 90 25 115 16 63 23 436 10 545 -12 100 -41 256 -66 355 -49 196 -169 495 -250 625 -69 113 -146 228 -180 272 -22 28 -51 68 -65 87 l-25 35 -423 1 -422 0 17 -27 c9 -16 27 -41 39 -58 31 -42 85 -148 118 -230 16 -38 32 -79 37 -90 21 -48 59 -185 68 -245 37 -243 36 -240 11 -470 -11 -99 -56 -312 -79 -372 -9 -25 -13 -27 -38 -18 -174 63 -385 199 -552 355 -138 129 -322 418 -366 575 -3 14 -13 39 -20 55 -7 17 -16 49 -20 73 -4 24 -14 46 -22 49 -26 10 -226 -16 -286 -37 -31 -11 -62 -20 -69 -20 -7 -1 -31 -9 -53 -20 -22 -11 -44 -19 -48 -20 -5 0 -51 -20 -103 -45 -51 -25 -95 -45 -98 -45 -7 0 -217 -120 -261 -148 -49 -33 -61 -43 -146 -114 -37 -32 -73 -58 -78 -58 -11 0 -6 71 9 125 5 17 11 53 15 80 8 56 21 99 72 230 60 154 141 301 252 456 13 19 5 19 -415 19 l-429 0 -63 -81z"/>
 </g>

</svg>